<svg width="24" height="24" viewBox="0 0 24 24" fill="none" xmlns="http://www.w3.org/2000/svg">
<mask id="mask0_1050_9169" style="mask-type:alpha" maskUnits="userSpaceOnUse" x="2" y="14" width="16" height="8">
<path fill-rule="evenodd" clip-rule="evenodd" d="M2 14.4561H17.754V21.795H2V14.4561Z" fill="white"/>
</mask>
<g mask="url(#mask0_1050_9169)">
<path fill-rule="evenodd" clip-rule="evenodd" d="M9.877 15.9561C5.646 15.9561 3.5 16.6831 3.5 18.1151C3.5 19.5611 5.646 20.2951 9.877 20.2951C14.108 20.2951 16.254 19.5681 16.254 18.1371C16.254 16.6891 14.108 15.9561 9.877 15.9561ZM9.877 21.7951C7.929 21.7951 2 21.7951 2 18.1151C2 14.8351 6.495 14.4561 9.877 14.4561C11.825 14.4561 17.754 14.4561 17.754 18.1371C17.754 21.4161 13.259 21.7951 9.877 21.7951Z" fill="#15213B"/>
</g>
<path fill-rule="evenodd" clip-rule="evenodd" d="M9.8766 12.636H9.8456C8.4266 12.631 7.0966 12.074 6.0996 11.07C5.1016 10.065 4.5546 8.731 4.5596 7.315C4.5596 4.386 6.9446 2 9.8766 2C12.8096 2 15.1946 4.386 15.1946 7.318C15.1946 10.25 12.8096 12.636 9.8766 12.636ZM9.88302 3.4277C7.74202 3.4277 6.00002 5.1687 6.00002 7.3097C5.99302 9.4437 7.72202 11.1837 9.85402 11.1917H9.88302C12.023 11.1917 13.764 9.4497 13.764 7.3097C13.764 5.1687 12.023 3.4277 9.88302 3.4277Z" fill="#15213B"/>
<path fill-rule="evenodd" clip-rule="evenodd" d="M19.2041 13.4297C18.7901 13.4297 18.4541 13.0937 18.4541 12.6797V8.6687C18.4541 8.2547 18.7901 7.9187 19.2041 7.9187C19.6181 7.9187 19.9541 8.2547 19.9541 8.6687V12.6797C19.9541 13.0937 19.6181 13.4297 19.2041 13.4297Z" fill="#15213B"/>
<path fill-rule="evenodd" clip-rule="evenodd" d="M21.2502 11.4238H17.1602C16.7462 11.4238 16.4102 11.0878 16.4102 10.6738C16.4102 10.2598 16.7462 9.92383 17.1602 9.92383H21.2502C21.6642 9.92383 22.0002 10.2598 22.0002 10.6738C22.0002 11.0878 21.6642 11.4238 21.2502 11.4238Z" fill="#15213B"/>
</svg>
