<svg width="24" height="24" viewBox="0 0 24 24" fill="none" xmlns="http://www.w3.org/2000/svg">
<mask id="mask0_1050_9152" style="mask-type:alpha" maskUnits="userSpaceOnUse" x="2" y="2" width="21" height="21">
<path fill-rule="evenodd" clip-rule="evenodd" d="M2 2H22.6966V22.6689H2V2Z" fill="white"/>
</mask>
<g mask="url(#mask0_1050_9152)">
<path fill-rule="evenodd" clip-rule="evenodd" d="M7.643 3.5C4.739 3.5 3.5 4.976 3.5 8.433V16.232C3.5 19.416 5.258 21.169 8.45 21.169H16.232C19.416 21.169 21.169 19.416 21.169 16.232V16.229L21.197 11.264C21.197 7.865 20.031 6.54 17.036 6.54H14.206C13.257 6.539 12.351 6.086 11.781 5.328L10.868 4.114C10.581 3.729 10.122 3.501 9.642 3.5H7.643ZM16.232 22.669H8.45C4.472 22.669 2 20.202 2 16.232V8.433C2 4.164 3.899 2 7.643 2H9.643C10.594 2.001 11.5 2.455 12.068 3.214L12.979 4.426C13.268 4.81 13.727 5.039 14.207 5.04H17.036C20.898 5.04 22.697 7.019 22.697 11.268L22.669 16.235C22.668 20.203 20.202 22.669 16.232 22.669Z" fill="#15213B"/>
</g>
<path fill-rule="evenodd" clip-rule="evenodd" d="M14.9504 13.5H8.54959C8.24622 13.5 8.00001 13.164 8.00001 12.75C8.00001 12.336 8.24622 12 8.54959 12H14.9504C15.2538 12 15.5 12.336 15.5 12.75C15.5 13.164 15.2538 13.5 14.9504 13.5Z" fill="#15213B"/>
<path fill-rule="evenodd" clip-rule="evenodd" d="M12.5498 9.54958L12.5498 15.9504C12.5498 16.2538 12.2138 16.5 11.7998 16.5C11.3858 16.5 11.0498 16.2538 11.0498 15.9504L11.0498 9.54958C11.0498 9.24621 11.3858 9 11.7998 9C12.2138 9 12.5498 9.24621 12.5498 9.54958Z" fill="#15213B"/>
</svg>
