<svg width="24" height="24" viewBox="0 0 24 24" fill="none" xmlns="http://www.w3.org/2000/svg">
<path fill-rule="evenodd" clip-rule="evenodd" d="M5.21358 18.2761C4.60048 17.663 4.60048 16.6678 5.21358 16.0547L16.0641 5.20418C16.6772 4.59109 17.6724 4.59109 18.2855 5.20418C18.8986 5.81727 18.8986 6.81244 18.2855 7.42553L7.43493 18.2761C6.82183 18.8892 5.82667 18.8892 5.21358 18.2761Z" fill="white"/>
<path fill-rule="evenodd" clip-rule="evenodd" d="M16.071 18.2803L5.21159 7.42089C4.59702 6.80632 4.5985 5.81263 5.21159 5.19954C5.82468 4.58645 6.81837 4.58497 7.43294 5.19954L18.2924 16.059C18.9055 16.6721 18.9055 17.6672 18.2924 18.2803C17.6793 18.8934 16.6841 18.8934 16.071 18.2803Z" fill="white"/>
</svg>
