<svg width="17" height="18" viewBox="0 0 17 18" fill="none" xmlns="http://www.w3.org/2000/svg">
<path fill-rule="evenodd" clip-rule="evenodd" d="M6.50174 11.614C6.34174 11.614 6.18174 11.5531 6.06008 11.4306C5.81591 11.1865 5.81591 10.7915 6.06008 10.5473L10.0534 6.55397C10.2976 6.30981 10.6926 6.30981 10.9367 6.55397C11.1809 6.79814 11.1809 7.19314 10.9367 7.43731L6.94341 11.4306C6.82174 11.5531 6.66174 11.614 6.50174 11.614Z" fill="#41A3F0"/>
<path fill-rule="evenodd" clip-rule="evenodd" d="M10.4974 11.6164C10.3374 11.6164 10.1774 11.5556 10.0558 11.4331L6.0591 7.4356C5.81493 7.19143 5.81493 6.79643 6.0591 6.55227C6.3041 6.3081 6.6991 6.3081 6.94243 6.55227L10.9391 10.5498C11.1833 10.7939 11.1833 11.1889 10.9391 11.4331C10.8174 11.5556 10.6566 11.6164 10.4974 11.6164Z" fill="#41A3F0"/>
<path fill-rule="evenodd" clip-rule="evenodd" d="M4.88783 1.91675C2.77949 1.91675 1.41699 3.36091 1.41699 5.59675V12.4034C1.41699 14.6392 2.77949 16.0834 4.88783 16.0834H12.1112C14.2203 16.0834 15.5837 14.6392 15.5837 12.4034V5.59675C15.5837 3.36091 14.2203 1.91675 12.112 1.91675H4.88783ZM12.1112 17.3334H4.88783C2.06366 17.3334 0.166992 15.3517 0.166992 12.4034V5.59675C0.166992 2.64841 2.06366 0.666748 4.88783 0.666748H12.112C14.9362 0.666748 16.8337 2.64841 16.8337 5.59675V12.4034C16.8337 15.3517 14.9362 17.3334 12.1112 17.3334Z" fill="#41A3F0"/>
</svg>
