<svg width="42" height="42" viewBox="0 0 42 42" fill="none" xmlns="http://www.w3.org/2000/svg">
<path fill-rule="evenodd" clip-rule="evenodd" d="M15.4269 13.7042C15.33 13.7987 15.226 13.9023 15.0871 14.042C15.0871 14.042 12.7982 16.3324 12.7906 16.339C12.7195 16.4064 12.6605 16.464 12.5992 16.5249C12.571 16.553 12.546 16.5778 12.4926 16.6303C12.4467 16.6755 12.4254 16.6964 12.399 16.7228L10.3295 18.7946C10.2851 18.8407 10.247 18.8795 10.198 18.9287L10.1422 18.9848C10.079 19.0481 10.029 19.0996 9.95834 19.1733C9.79627 19.3332 9.63194 19.5141 9.4772 19.7037C9.33342 19.857 9.21734 20.0342 9.13423 20.2275L9.11227 20.2859C8.96258 20.7494 8.96258 21.2482 9.11227 21.7116L9.1352 21.7723C9.21893 21.965 9.33563 22.1416 9.47995 22.2941C9.63404 22.4835 9.79826 22.6644 9.97189 22.836C10.0084 22.8754 10.0622 22.9303 10.1341 23.0022C10.1838 23.0519 10.2051 23.0733 10.2317 23.1001C10.2661 23.1348 10.2958 23.1651 10.3234 23.1937L12.3984 25.2725C12.5012 25.3753 12.5472 25.421 12.6296 25.5013C12.6972 25.5682 12.7373 25.6072 12.8115 25.6756L15.0891 27.9565C15.2598 28.1273 15.3364 28.2035 15.4329 28.2983C15.5584 28.4239 15.6411 28.505 15.7703 28.6313C15.819 28.6826 15.8372 28.7015 15.8622 28.7247C16.1538 29.0177 16.5094 29.2767 16.8989 29.4754C17.2887 29.6717 17.702 29.8081 18.1286 29.8818C18.5283 29.9476 18.9271 29.9828 19.3269 29.9878C19.4964 29.9916 19.6665 29.9939 19.8346 29.9945L20.2348 29.9945H27.6805C27.835 29.9945 27.9882 29.9923 28.2006 29.9877C28.598 29.9829 29.0008 29.9475 29.3992 29.8821C29.8343 29.8069 30.2505 29.6692 30.6397 29.4726C31.0341 29.2732 31.394 29.0123 31.706 28.6997C32.0167 28.3878 32.2765 28.0301 32.4767 27.6388C32.6748 27.2444 32.812 26.8274 32.8858 26.3971C32.9518 25.9938 32.9869 25.5912 32.9917 25.1878C32.9947 25.0887 32.9961 25.0014 32.9984 24.8071L33 24.6828L33.0001 24.0697V17.2823L32.9989 17.1749C32.9976 17.0552 32.997 17.0029 32.9958 16.9358C32.9947 16.8728 32.9934 16.8151 32.9918 16.7595C32.9873 16.3716 32.9525 15.9726 32.888 15.578C32.8138 15.1459 32.6778 14.7325 32.4836 14.3456C32.2825 13.9525 32.0244 13.5975 31.7163 13.2885C31.4081 12.9781 31.051 12.7183 30.6595 12.5201C30.2732 12.3248 29.8603 12.188 29.434 12.1141C29.0325 12.0488 28.6336 12.014 28.2338 12.0087C28.0528 12.0043 27.8857 12.002 27.7251 12.002C27.563 12.0003 27.4289 12 27.1279 12H20.4324C20.1336 12 19.9986 12.0003 19.8292 12.002C19.6756 12.002 19.5091 12.0043 19.3181 12.0089C18.9259 12.014 18.5277 12.0488 18.1337 12.113C17.7003 12.1881 17.287 12.3247 16.9005 12.5196C16.5081 12.7195 16.1522 12.9788 15.8437 13.289C15.8294 13.3031 15.8189 13.3141 15.7316 13.4074C15.6232 13.5101 15.5236 13.6072 15.4269 13.7042ZM12.8358 16.3013L12.8382 16.2993L12.8346 16.3021L12.8306 16.3053L12.8358 16.3013ZM16.032 27.0142L13.73 24.7089C13.73 24.7089 13.684 24.6671 13.6793 24.663C13.6437 24.6291 13.6132 24.5992 13.5369 24.5238C13.4818 24.4704 13.4389 24.4278 13.3413 24.3302L11.2747 22.2599C11.2505 22.2347 11.2167 22.2002 11.1784 22.1616C11.15 22.1329 11.127 22.1099 11.0767 22.0595C11.0134 21.9963 10.9679 21.9499 10.9256 21.9049C10.7637 21.7443 10.6268 21.5928 10.4986 21.4339L10.4547 21.3846C10.4208 21.3502 10.3924 21.3108 10.3704 21.2679C10.3204 21.0915 10.3205 20.9046 10.3708 20.7283C10.3928 20.6846 10.4213 20.6445 10.4555 20.6093L10.4959 20.5639C10.6248 20.4046 10.7623 20.2526 10.908 20.1086C10.986 20.0276 11.0312 19.9811 11.0653 19.9465L11.1107 19.9012L11.1426 19.8693C11.1968 19.8148 11.2402 19.7707 11.2818 19.7273L13.3406 17.6664C13.3632 17.6439 13.3823 17.625 13.4365 17.5718C13.4832 17.5258 13.5103 17.499 13.5403 17.469C13.5868 17.4228 13.6324 17.3782 13.6773 17.3352C13.6871 17.3269 13.6986 17.3163 13.7313 17.286L16.0313 14.983C16.1671 14.8464 16.2669 14.747 16.3646 14.6516C16.4586 14.5574 16.5493 14.469 16.6453 14.378C16.6665 14.3582 16.6792 14.3449 16.738 14.2826L16.7844 14.2336C16.9978 14.019 17.2389 13.8433 17.503 13.7088C17.7697 13.5743 18.0575 13.4792 18.3545 13.4277C18.6767 13.3753 19.0093 13.3462 19.3426 13.3418C19.5308 13.3373 19.6871 13.3351 19.8357 13.3351C20.0059 13.3335 20.1379 13.3331 20.4323 13.3331H27.1277C27.4243 13.3331 27.5554 13.3335 27.7183 13.3351C27.8739 13.3351 28.0306 13.3373 28.2089 13.3416C28.5502 13.3461 28.8834 13.3752 29.2131 13.4288C29.5024 13.479 29.7892 13.574 30.0574 13.7097C30.3214 13.8433 30.5625 14.0186 30.7712 14.2288C30.9824 14.4407 31.1586 14.6831 31.2943 14.9483C31.4273 15.2132 31.522 15.5012 31.5731 15.7984C31.6259 16.1218 31.6549 16.4541 31.6588 16.7872C31.6605 16.8488 31.6617 16.901 31.6627 16.9587C31.6638 17.0219 31.6644 17.0724 31.6657 17.1892L31.6668 17.2903L31.6668 17.8799V24.668L31.6652 24.7914C31.663 24.9778 31.6617 25.0598 31.6587 25.1601C31.6545 25.5086 31.6252 25.8445 31.5708 26.1768C31.5201 26.4722 31.4243 26.7635 31.2874 27.036C31.1525 27.2998 30.9744 27.545 30.7619 27.7584C30.5504 27.9702 30.3059 28.1474 30.0381 28.2829C29.7671 28.4198 29.477 28.5157 29.1776 28.5675C28.8506 28.6211 28.5146 28.6506 28.1777 28.6548C27.9679 28.6593 27.8233 28.6614 27.6803 28.6614H19.8371C19.6799 28.6608 19.5178 28.6586 19.3498 28.6549C19.0107 28.6506 18.6787 28.6213 18.3502 28.5672C18.0584 28.5168 17.7707 28.4219 17.5015 28.2863C17.2402 28.1529 16.9986 27.977 16.7888 27.7667C16.7763 27.7544 16.7589 27.7364 16.7369 27.7132L16.7341 27.7103C16.6816 27.655 16.6698 27.6425 16.6574 27.6306L16.6424 27.6165C16.5662 27.545 16.4917 27.472 16.3713 27.3515C16.2743 27.2562 16.1996 27.1818 16.032 27.0142ZM20.8129 24.5249C20.7588 24.5785 20.6939 24.6223 20.6208 24.6526C20.3974 24.7451 20.1402 24.694 19.9692 24.523C19.8566 24.4108 19.7934 24.2584 19.7934 24.0995C19.7934 23.9406 19.8566 23.7883 19.9692 23.6761V23.6774C20.0015 23.6451 20.0369 23.6171 20.0745 23.5935L22.6689 20.9959L19.9692 18.2991L19.9777 18.2906C19.9239 18.2364 19.8801 18.1715 19.8497 18.0982C19.7572 17.8748 19.8083 17.6176 19.9794 17.4466C20.0916 17.3336 20.2442 17.2701 20.4035 17.2701C20.5627 17.2701 20.7153 17.3336 20.8276 17.4466H20.8249C20.8538 17.4754 20.8792 17.5067 20.9011 17.5399L23.5133 20.1504L26.1312 17.5293C26.1516 17.4996 26.1751 17.4713 26.2015 17.4449C26.3725 17.2739 26.6297 17.2227 26.8531 17.3153C27.0765 17.4078 27.2222 17.6259 27.2222 17.8677C27.2222 18.0284 27.1578 18.1787 27.0491 18.2885L27.0561 18.2955L24.3591 20.9957L26.9693 23.6042C27.0012 23.6256 27.0311 23.6502 27.0587 23.6777L27.0573 23.6791C27.2283 23.8501 27.2795 24.1072 27.187 24.3307C27.0944 24.5541 26.8764 24.6998 26.6346 24.6998C26.4738 24.6998 26.3235 24.6354 26.2137 24.5266L26.2087 24.5316L23.5149 21.8409L20.8236 24.5356L20.8129 24.5249Z" fill="white"/>
</svg>
