<svg width="278" height="171" viewBox="0 0 278 171" fill="none" xmlns="http://www.w3.org/2000/svg">
    <path d="M140 5.65552L215 43.6555L140 77.1555L64.9995 43.6555L140 5.65552Z" fill="#C4DCFF" />
    <path
        d="M0.335794 63.7403C0.330728 64.7034 0.347363 65.6747 0.385129 66.6275L1.10272 66.5991C1.04605 65.1725 1.03795 63.7121 1.07845 62.2772L0.360402 62.2574C0.346603 62.7499 0.338403 63.2442 0.335794 63.7403ZM0.631282 57.8954L1.34628 57.9642C1.48424 56.5334 1.67348 55.0923 1.90816 53.6801L1.19972 53.563C0.96252 54.9909 0.771097 56.4484 0.631282 57.8954ZM0.705146 70.9853C0.861305 72.4303 1.06932 73.8857 1.32341 75.3113L2.03031 75.1856C1.77928 73.7764 1.57364 72.3375 1.4195 70.9085L0.705146 70.9853ZM2.06453 49.2794L2.76358 49.4447C3.09562 48.0491 3.48101 46.6472 3.90901 45.278L3.22354 45.0645C2.79055 46.4497 2.40053 47.8677 2.06453 49.2794ZM2.23859 79.585C2.59097 80.9919 2.99767 82.4054 3.44697 83.7858L4.12982 83.5648C3.6857 82.1994 3.28382 80.8021 2.93523 79.411L2.23859 79.585ZM4.67138 40.94L5.34047 41.2003C5.86227 39.8641 6.43701 38.5297 7.04836 37.2346L6.39844 36.9296C5.78034 38.2393 5.19922 39.5884 4.67138 40.94ZM4.94509 87.8996C5.49029 89.2485 6.0888 90.5941 6.72435 91.8989L7.37052 91.5856C6.74225 90.2957 6.15034 88.9653 5.61138 87.6316L4.94509 87.8996ZM8.39834 33.0459L9.0256 33.3948C9.72649 32.1425 10.4793 30.8986 11.2633 29.6985L10.6615 29.307C9.86862 30.521 9.10739 31.7789 8.39834 33.0459ZM8.77432 95.7654C9.49952 97.0262 10.2767 98.2765 11.0849 99.4818L11.6817 99.0833C10.8829 97.8917 10.1141 96.6554 9.39687 95.4086L8.77432 95.7654ZM13.176 25.731L13.7495 26.1623C14.615 25.0165 15.5309 23.8864 16.4722 22.8029L15.9297 22.3334C14.9775 23.4294 14.051 24.5724 13.176 25.731ZM13.6447 103.031C14.5335 104.179 15.474 105.311 16.4403 106.398L16.9772 105.922C16.0221 104.848 15.0921 103.728 14.213 102.593L13.6447 103.031ZM18.9097 19.1304L19.419 19.6355C20.4328 18.6178 21.4946 17.6218 22.5754 16.6752L22.1014 16.1367C21.0086 17.0941 19.9348 18.1013 18.9097 19.1304ZM19.459 109.565C20.4968 110.583 21.5829 111.577 22.6863 112.52L23.1535 111.976C22.0622 111.043 20.9888 110.06 19.9624 109.054L19.459 109.565ZM25.4918 13.3665L25.9278 13.9356C27.0696 13.0656 28.2578 12.2227 29.4591 11.4307L29.0632 10.8331C27.8482 11.6339 26.6466 12.4864 25.4918 13.3665ZM26.1071 115.249C27.2734 116.116 28.4844 116.953 29.7058 117.737L30.0947 117.134C28.8869 116.359 27.6895 115.531 26.5358 114.674L26.1071 115.249ZM32.8017 8.549L33.1554 9.1722C34.4082 8.46439 35.7011 7.79142 36.999 7.17166L36.6889 6.52559C35.3763 7.15229 34.0686 7.83286 32.8017 8.549ZM33.4657 119.974C34.7388 120.673 36.0524 121.337 37.3698 121.947L37.672 121.297C36.3696 120.694 35.0707 120.038 33.812 119.346L33.4657 119.974ZM40.7073 4.77333L40.9717 5.43945C42.3105 4.91017 43.6848 4.42061 45.0568 3.98456L44.8388 3.30189C43.451 3.74274 42.0608 4.23783 40.7073 4.77333ZM41.3987 123.647C42.7572 124.167 44.1511 124.645 45.5413 125.069L45.7511 124.383C44.3766 123.964 42.9989 123.492 41.6554 122.978L41.3987 123.647ZM49.0568 2.12058L49.2271 2.81698C50.6245 2.47693 52.0511 2.18146 53.4673 1.93841L53.3455 1.23246C51.9132 1.47823 50.4704 1.77711 49.0568 2.12058ZM49.7721 126.201C51.1884 126.528 52.6348 126.81 54.0708 127.039L54.1843 126.332C52.7644 126.105 51.3345 125.826 49.9342 125.503L49.7721 126.201ZM57.6847 0.640251L57.7578 1.35294C59.1861 1.20757 60.6397 1.10955 62.0786 1.06114L62.0543 0.345207C60.5995 0.393883 59.1293 0.493215 57.6847 0.640251ZM58.4168 127.582C59.8628 127.712 61.3341 127.795 62.7899 127.828L62.8059 127.111C61.3662 127.079 59.9114 126.997 58.4816 126.868L58.4168 127.582ZM66.4104 1.06224C67.8493 1.11039 69.3032 1.2083 70.7315 1.3533L70.8043 0.640687C69.3597 0.493842 67.8895 0.394799 66.4345 0.345862L66.4104 1.06224ZM75.0226 1.93774C76.4419 2.18136 77.8686 2.47644 79.2633 2.81544L79.4332 2.11942C78.0227 1.77649 76.5797 1.47784 75.1442 1.23169L75.0226 1.93774ZM83.433 3.98282C84.8018 4.41754 86.1728 4.90511 87.5076 5.43236L87.772 4.76622C86.4218 4.23295 85.0352 3.73971 83.6509 3.30035L83.433 3.98282ZM91.4734 7.15944C92.7711 7.77852 94.0626 8.45002 95.312 9.15491L95.6656 8.53122C94.4019 7.81822 93.0957 7.13929 91.7833 6.51314L91.4734 7.15944ZM99.0054 11.4089C100.207 12.1999 101.395 13.0416 102.536 13.9096L102.972 13.3403C101.818 12.462 100.616 11.6108 99.4009 10.8106L99.0054 11.4089ZM105.888 16.646C106.97 17.5914 108.032 18.5864 109.047 19.6035L109.556 19.0982C108.53 18.0694 107.455 17.0632 106.362 16.1069L105.888 16.646ZM111.996 22.7694C112.939 23.8548 113.857 24.9851 114.722 26.1291L115.296 25.6976C114.42 24.5406 113.492 23.3973 112.538 22.3L111.996 22.7694ZM117.214 29.6663C118.001 30.8704 118.755 32.1153 119.456 33.3666L120.083 33.0172C119.374 31.7516 118.611 30.4926 117.815 29.2748L117.214 29.6663ZM121.439 37.2125C122.053 38.5119 122.63 39.8486 123.152 41.1857L123.821 40.9254C123.293 39.5733 122.71 38.2212 122.089 36.9066L121.439 37.2125ZM124.587 45.268C125.015 46.6375 125.401 48.0393 125.734 49.4349L126.433 49.2692C126.096 47.8575 125.706 46.4396 125.272 45.0547L124.587 45.268ZM126.59 53.6709C126.825 55.0848 127.015 56.5262 127.153 57.9553L127.868 57.8863C127.728 56.441 127.537 54.9832 127.299 53.5535L126.59 53.6709Z"
        fill="#1372FF" />
    <path opacity="0.1" d="M140 5.65552L215 43.6555L140 77.1555V41.6555V5.65552Z" fill="black" />
    <path
        d="M267.692 57.697C267.137 56.7356 266.555 55.7787 265.963 54.8525L265.266 55.2981C266.152 56.6848 267.009 58.1334 267.803 59.5848L268.53 59.187C268.257 58.6889 267.978 58.1922 267.692 57.697ZM270.797 63.6853L270.045 64.0326C270.74 65.5368 271.39 67.0809 271.977 68.6227L272.75 68.3273C272.156 66.7683 271.499 65.2066 270.797 63.6853ZM263.111 50.702C262.115 49.3548 261.062 48.0274 259.98 46.7565L259.349 47.2927C260.419 48.549 261.46 49.8615 262.444 51.1938L263.111 50.702ZM274.381 73.093L273.589 73.335C274.07 74.9169 274.502 76.5361 274.872 78.1476L275.679 77.9614C275.304 76.3311 274.868 74.6932 274.381 73.093ZM256.584 43.0358C255.415 41.8407 254.188 40.6706 252.938 39.5582L252.387 40.1752C253.623 41.2757 254.836 42.4325 255.992 43.6141L256.584 43.0358ZM276.637 82.9079L275.819 83.0379C276.077 84.6711 276.281 86.3333 276.426 87.9776L277.25 87.9032C277.103 86.2403 276.897 84.5598 276.637 82.9079ZM249.055 36.3356C247.728 35.3103 246.35 34.3193 244.959 33.3905L244.498 34.0779C245.873 34.9962 247.236 35.976 248.548 36.9898L249.055 36.3356ZM277.518 92.931L276.691 92.9486C276.722 94.6024 276.696 96.2781 276.614 97.9283L277.441 97.9679C277.524 96.2987 277.55 94.6042 277.518 92.931ZM240.67 30.7349C239.215 29.9019 237.715 29.1097 236.209 28.3803L235.847 29.1239C237.335 29.8451 238.819 30.6283 240.258 31.4519L240.67 30.7349ZM277.018 102.989L276.196 102.893C276.001 104.537 275.747 106.194 275.441 107.82L276.253 107.971C276.564 106.327 276.821 104.651 277.018 102.989ZM231.598 26.3366C230.046 25.7115 228.451 25.1314 226.858 24.6125L226.601 25.3982C228.176 25.9113 229.752 26.4849 231.287 27.1032L231.598 26.3366ZM275.151 112.892L274.35 112.685C273.933 114.288 273.456 115.896 272.931 117.467L273.715 117.727C274.246 116.139 274.729 114.512 275.151 112.892ZM222.012 23.2157C220.388 22.8068 218.729 22.4489 217.082 22.1518L216.933 22.9649C218.562 23.2586 220.202 23.6127 221.808 24.0169L222.012 23.2157ZM271.953 122.455L271.188 122.143C270.557 123.672 269.865 125.202 269.13 126.689L269.872 127.053C270.615 125.55 271.315 124.003 271.953 122.455ZM212.091 21.4261C210.426 21.2416 208.734 21.1128 207.063 21.0426L207.026 21.8684C208.679 21.9377 210.352 22.0651 211.999 22.2473L212.091 21.4261ZM267.48 131.501L266.765 131.086C265.93 132.519 265.035 133.941 264.104 135.312L264.788 135.775C265.73 134.388 266.635 132.95 267.48 131.501ZM202.02 21.0034C200.347 21.0478 198.653 21.151 196.988 21.31L197.065 22.1324C198.712 21.9754 200.386 21.8732 202.041 21.8293L202.02 21.0034ZM261.808 139.855L261.158 139.346C260.133 140.652 259.05 141.938 257.939 143.17L258.553 143.722C259.677 142.477 260.773 141.175 261.808 139.855ZM191.989 21.9609C190.336 22.2343 188.671 22.5692 187.04 22.9555L187.23 23.7595C188.842 23.3773 190.488 23.0466 192.123 22.7759L191.989 21.9609ZM255.042 147.351L254.468 146.757C253.275 147.908 252.027 149.032 250.759 150.097L251.291 150.729C252.573 149.651 253.835 148.515 255.042 147.351ZM182.172 24.2894C180.572 24.7875 178.969 25.3478 177.406 25.9548L177.705 26.7248C179.25 26.1247 180.835 25.5708 182.417 25.0785L182.172 24.2894ZM247.317 153.842L246.83 153.175C245.493 154.15 244.103 155.093 242.7 155.978L243.14 156.676C244.56 155.782 245.965 154.828 247.317 153.842ZM172.766 27.9424C171.251 28.6535 169.739 29.4268 168.271 30.2407L168.672 30.963C170.123 30.1578 171.619 29.3934 173.117 28.6903L172.766 27.9424ZM238.388 158.496C236.928 159.285 235.425 160.033 233.919 160.719L234.261 161.471C235.784 160.777 237.304 160.02 238.781 159.223L238.388 158.496ZM229.309 162.633C227.755 163.216 226.163 163.752 224.578 164.226L224.814 165.017C226.417 164.538 228.027 163.996 229.598 163.406L229.309 162.633ZM219.75 165.489C218.135 165.852 216.487 166.164 214.852 166.416L214.976 167.233C216.63 166.978 218.297 166.663 219.93 166.295L219.75 165.489ZM209.901 167.004C208.25 167.142 206.574 167.225 204.921 167.25L204.932 168.076C206.604 168.051 208.298 167.967 209.969 167.827L209.901 167.004ZM199.935 167.155C198.279 167.067 196.607 166.92 194.967 166.72L194.864 167.54C196.524 167.742 198.214 167.891 199.889 167.98L199.935 167.155ZM190.039 165.946C188.414 165.634 186.778 165.262 185.177 164.84L184.964 165.639C186.583 166.066 188.238 166.442 189.882 166.758L190.039 165.946ZM180.401 163.404C178.83 162.873 177.26 162.282 175.733 161.647L175.414 162.409C176.958 163.052 178.546 163.65 180.134 164.187L180.401 163.404ZM171.197 159.575C169.714 158.835 168.239 158.035 166.814 157.197L166.393 157.909C167.835 158.756 169.326 159.566 170.827 160.315L171.197 159.575ZM162.604 154.523C161.237 153.587 159.886 152.592 158.588 151.565L158.074 152.213C159.386 153.252 160.753 154.258 162.135 155.205L162.604 154.523ZM154.787 148.337C153.564 147.224 152.365 146.053 151.222 144.858L150.623 145.429C151.779 146.638 152.992 147.822 154.229 148.948L154.787 148.337ZM147.906 141.14C146.85 139.87 145.823 138.546 144.855 137.204L144.184 137.688C145.163 139.045 146.201 140.385 147.27 141.669L147.906 141.14Z"
        fill="#1372FF" />
    <path d="M64.9995 43.6555L140 77.1555V170.656L64.9995 136.656V43.6555Z" fill="#7DB1FF" />
    <path opacity="0.15" d="M64.9995 43.6555L140 77.1555V170.656L64.9995 136.656V43.6555Z" fill="black" />
    <path d="M215 43.6555L140 77.1555V170.656L215 136.656V43.6555Z" fill="#7DB1FF" />
    <path
        d="M64.9995 43.6555L140 77.1555L127.421 117.358C126.705 119.645 124.153 120.794 121.967 119.814L51.4891 88.2198C49.537 87.3447 48.619 85.0886 49.4055 83.0992L64.9995 43.6555Z"
        fill="#7DB1FF" />
    <path
        d="M215 43.6555L140 77.1555L155.482 117.681C156.305 119.835 158.774 120.849 160.874 119.895L230.397 88.2933C232.393 87.386 233.287 85.0408 232.4 83.0352L215 43.6555Z"
        fill="#DCEAFF" />
</svg>
