<svg width="42" height="42" viewBox="0 0 42 42" fill="none" xmlns="http://www.w3.org/2000/svg">
<path d="M6.64571 13.7771V10.2114C6.64571 8.19731 8.19731 6.64571 10.2114 6.64571H13.7771C14.2316 6.64571 14.6 6.27731 14.6 5.82286C14.6 5.36841 14.2316 5 13.7771 5H10.2114C7.28841 5 5 7.28841 5 10.2114V13.7771C5 14.2316 5.36841 14.6 5.82286 14.6C6.27731 14.6 6.64571 14.2316 6.64571 13.7771Z" fill="white"/>
<path d="M35.3543 13.7771V10.2114C35.3543 8.19731 33.8027 6.64571 31.7886 6.64571H28.2229C27.7684 6.64571 27.4 6.27731 27.4 5.82286C27.4 5.36841 27.7684 5 28.2229 5H31.7886C34.7116 5 37 7.28841 37 10.2114V13.7771C37 14.2316 36.6316 14.6 36.1771 14.6C35.7227 14.6 35.3543 14.2316 35.3543 13.7771Z" fill="white"/>
<path d="M6.64571 28.2229V31.7886C6.64571 33.8027 8.19731 35.3543 10.2114 35.3543H13.7771C14.2316 35.3543 14.6 35.7227 14.6 36.1771C14.6 36.6316 14.2316 37 13.7771 37H10.2114C7.28841 37 5 34.7116 5 31.7886V28.2229C5 27.7684 5.36841 27.4 5.82286 27.4C6.27731 27.4 6.64571 27.7684 6.64571 28.2229Z" fill="white"/>
<path d="M35.3543 28.2229V31.7886C35.3543 33.8027 33.8027 35.3543 31.7886 35.3543H28.2229C27.7684 35.3543 27.4 35.7227 27.4 36.1771C27.4 36.6316 27.7684 37 28.2229 37H31.7886C34.7116 37 37 34.7116 37 31.7886V28.2229C37 27.7684 36.6316 27.4 36.1771 27.4C35.7227 27.4 35.3543 27.7684 35.3543 28.2229Z" fill="white"/>
<path d="M13.7012 17.0852V19.3722C13.7012 19.8456 14.0593 20.2293 14.5012 20.2293C14.943 20.2293 15.3012 19.8456 15.3012 19.3722V17.0852C15.3012 16.6118 14.943 16.228 14.5012 16.228C14.0593 16.228 13.7012 16.6118 13.7012 17.0852Z" fill="white"/>
<path d="M26.8955 17.0852V19.3722C26.8955 19.8456 27.2537 20.2293 27.6955 20.2293C28.1373 20.2293 28.4955 19.8456 28.4955 19.3722V17.0852C28.4955 16.6118 28.1373 16.228 27.6955 16.228C27.2537 16.228 26.8955 16.6118 26.8955 17.0852Z" fill="white"/>
<path d="M15.373 28.633C16.9335 30.0895 18.8234 30.8244 21.0002 30.8244C23.1771 30.8244 25.067 30.0895 26.6274 28.633C26.9674 28.3157 26.9858 27.7828 26.6685 27.4428C26.3511 27.1028 25.8183 27.0844 25.4783 27.4018C24.2317 28.5652 22.7532 29.1402 21.0002 29.1402C19.2472 29.1402 17.7687 28.5652 16.5222 27.4018C16.1822 27.0844 15.6493 27.1028 15.332 27.4428C15.0146 27.7828 15.033 28.3157 15.373 28.633Z" fill="white"/>
<path d="M21.0001 17.0701V22.9649C21.0001 23.3421 20.8157 23.5263 20.4366 23.5263H19.8773C19.4122 23.5263 19.0352 23.9033 19.0352 24.3684C19.0352 24.8335 19.4122 25.2105 19.8773 25.2105H20.4366C21.7454 25.2105 22.6843 24.2727 22.6843 22.9649V17.0701C22.6843 16.6051 22.3073 16.228 21.8422 16.228C21.3771 16.228 21.0001 16.6051 21.0001 17.0701Z" fill="white"/>
</svg>
