<svg width="24" height="24" viewBox="0 0 24 24" fill="none" xmlns="http://www.w3.org/2000/svg">
<mask id="mask0_995_2847" style="mask-type:alpha" maskUnits="userSpaceOnUse" x="1" y="1" width="22" height="22">
<path fill-rule="evenodd" clip-rule="evenodd" d="M1 1.00049H22.493V22.4943H1V1.00049Z" fill="white"/>
</mask>
<g mask="url(#mask0_995_2847)">
<path fill-rule="evenodd" clip-rule="evenodd" d="M6.10886 19.6755C6.68886 19.6755 7.23586 19.8955 7.81486 20.1285C11.3619 21.7685 15.5569 21.0225 18.2899 18.2905C21.8959 14.6825 21.8959 8.81349 18.2899 5.20749C16.5439 3.46149 14.2219 2.50049 11.7499 2.50049C9.27686 2.50049 6.95386 3.46249 5.20886 5.20849C2.47486 7.94049 1.73086 12.1355 3.35586 15.6485C3.58986 16.2275 3.81586 16.7915 3.81586 17.3775C3.81586 17.9625 3.61486 18.5515 3.43786 19.0715C3.29186 19.4995 3.07086 20.1455 3.21286 20.2875C3.35186 20.4315 4.00186 20.2045 4.43086 20.0575C4.94586 19.8815 5.52986 19.6795 6.10886 19.6755ZM11.7244 22.4945C10.1964 22.4945 8.65844 22.1715 7.21944 21.5055C6.79544 21.3355 6.39844 21.1755 6.11344 21.1755C5.78544 21.1775 5.34444 21.3295 4.91844 21.4765C4.04444 21.7765 2.95644 22.1505 2.15144 21.3485C1.34944 20.5455 1.71944 19.4605 2.01744 18.5875C2.16444 18.1575 2.31544 17.7135 2.31544 17.3775C2.31544 17.1015 2.18244 16.7495 1.97844 16.2425C0.105437 12.1975 0.971437 7.32249 4.14844 4.14749C6.17644 2.11849 8.87544 1.00049 11.7484 1.00049C14.6214 1.00049 17.3214 2.11749 19.3494 4.14649C23.5414 8.33849 23.5414 15.1585 19.3494 19.3505C17.2944 21.4065 14.5274 22.4945 11.7244 22.4945Z" fill="#969BA7"/>
</g>
<path fill-rule="evenodd" clip-rule="evenodd" d="M15.6964 13.1631C15.1444 13.1631 14.6924 12.7161 14.6924 12.1631C14.6924 11.6101 15.1354 11.1631 15.6874 11.1631H15.6964C16.2484 11.1631 16.6964 11.6101 16.6964 12.1631C16.6964 12.7161 16.2484 13.1631 15.6964 13.1631Z" fill="#969BA7"/>
<path fill-rule="evenodd" clip-rule="evenodd" d="M11.6876 13.1631C11.1356 13.1631 10.6836 12.7161 10.6836 12.1631C10.6836 11.6101 11.1256 11.1631 11.6786 11.1631H11.6876C12.2396 11.1631 12.6876 11.6101 12.6876 12.1631C12.6876 12.7161 12.2396 13.1631 11.6876 13.1631Z" fill="#969BA7"/>
<path fill-rule="evenodd" clip-rule="evenodd" d="M7.67783 13.1631C7.12583 13.1631 6.67383 12.7161 6.67383 12.1631C6.67383 11.6101 7.11683 11.1631 7.66883 11.1631H7.67783C8.22983 11.1631 8.67783 11.6101 8.67783 12.1631C8.67783 12.7161 8.22983 13.1631 7.67783 13.1631Z" fill="#969BA7"/>
</svg>
