<svg width="20" height="20" viewBox="0 0 20 20" fill="none" xmlns="http://www.w3.org/2000/svg">
<path fill-rule="evenodd" clip-rule="evenodd" d="M3.12479 17.0831C2.96479 17.0831 2.80479 17.0223 2.68313 16.8998C2.43896 16.6556 2.43896 16.2606 2.68313 16.0165L16.0156 2.68313C16.2598 2.43896 16.6548 2.43896 16.899 2.68313C17.1431 2.92729 17.1431 3.32229 16.899 3.56646L3.56646 16.8998C3.44479 17.0223 3.28479 17.0831 3.12479 17.0831Z" fill="#EE5A5A"/>
<path fill-rule="evenodd" clip-rule="evenodd" d="M17.0821 16.4577C17.0821 16.6177 17.0213 16.7777 16.8988 16.8994C16.6546 17.1436 16.2596 17.1436 16.0155 16.8994L2.68215 3.56689C2.43798 3.32273 2.43798 2.92773 2.68215 2.68356C2.92631 2.43939 3.32131 2.43939 3.56548 2.68356L16.8988 16.0161C17.0213 16.1377 17.0821 16.2977 17.0821 16.4577Z" fill="#EE5A5A"/>
</svg>
