<svg width="222" height="133" viewBox="0 0 222 133" fill="none" xmlns="http://www.w3.org/2000/svg">
    <path fill-rule="evenodd" clip-rule="evenodd"
        d="M76.9674 0L67.0664 16.8493C88.1023 16.8493 109.148 16.8493 130.184 16.8493L135.13 25.2789L120.283 50.5479L130.184 67.3971H149.976L140.075 50.5479L154.921 25.2789C149.976 16.8493 145.031 8.42966 140.075 0C119.039 0 98.0033 0 76.9674 0ZM99.7571 50.5479H79.9653L70.0642 67.3971H89.8663L99.7571 50.5479ZM78.7825 25.2789L68.8814 42.1282C84.3703 42.1282 99.8489 42.1282 115.338 42.1282L125.239 25.2789C109.75 25.2789 94.2611 25.2789 78.7825 25.2789Z"
        fill="url(#paint0_linear_837_93444)" />
    <path
        d="M28.931 132.398L20.1312 120.119C25.1888 118.556 28.6251 114.536 28.6251 109.304C28.6251 102.558 22.9965 97.8273 15.4713 97.8273H0.166016V132.398H6.55937V120.771H13.3708L21.6607 132.398H28.931ZM6.55937 103.621H14.7575C19.1013 103.621 22.1196 105.776 22.1196 109.304C22.1196 112.822 19.1013 114.987 14.7575 114.987H6.55937V103.621ZM64.7011 132.999C74.6837 132.999 83.1266 124.8 83.1266 115.088C83.1266 105.375 74.6837 97.2259 64.7011 97.2259C54.6778 97.2259 46.2247 105.375 46.2247 115.088C46.2247 124.8 54.6778 132.999 64.7011 132.999ZM64.7011 127.266C58.2058 127.266 52.7302 121.733 52.7302 115.088C52.7302 108.492 58.2058 102.959 64.7011 102.959C71.1557 102.959 76.5803 108.492 76.5803 115.088C76.5803 121.733 71.1557 127.266 64.7011 127.266ZM115.165 132.949C123.567 132.949 128.37 128.569 128.37 122.385C128.37 116.09 123.465 113.774 116.144 112.171C110.566 110.908 107.956 109.905 107.956 107.089C107.956 104.673 110.362 102.558 113.89 102.558C117.367 102.558 120.906 104.022 123.975 106.638L127.452 102.007C123.924 99.0401 119.723 97.1758 114.145 97.1758C106.722 97.1758 101.501 101.606 101.501 107.64C101.501 114.135 106.569 116.19 113.839 117.854C119.468 119.167 121.976 120.119 121.976 122.986C121.976 125.452 119.723 127.567 115.379 127.567C110.77 127.567 107.028 125.752 103.806 122.886L100.125 127.366C104.01 130.934 109.128 132.949 115.165 132.949ZM156.829 132.398H163.181V103.571H174.438V97.8273H145.571V103.571H156.829V132.398ZM221.833 132.398L213.023 120.119C218.091 118.556 221.527 114.536 221.527 109.304C221.527 102.558 215.898 97.8273 208.373 97.8273H193.068V132.398H199.461V120.771H206.273L214.563 132.398H221.833ZM199.461 103.621H207.649C212.003 103.621 215.021 105.776 215.021 109.304C215.021 112.822 212.003 114.987 207.649 114.987H199.461V103.621Z"
        fill="#15213B" />
    <defs>
        <linearGradient id="paint0_linear_837_93444" x1="67.0664" y1="58.13" x2="126.759" y2="-4.164"
            gradientUnits="userSpaceOnUse">
            <stop stop-color="#56CCF2" />
            <stop offset="1" stop-color="#2F80ED" />
        </linearGradient>
    </defs>
</svg>
